<svg xmlns="http://www.w3.org/2000/svg" xmlns:xlink="http://www.w3.org/1999/xlink" version="1.1" width="256" height="256" viewBox="0 0 256 256" xml:space="preserve">

<defs>
</defs>
<g style="stroke: none; stroke-width: 0; stroke-dasharray: none; stroke-linecap: butt; stroke-linejoin: miter; stroke-miterlimit: 10; fill: none; fill-rule: nonzero; opacity: 1;" transform="translate(1.4065934065934016 1.4065934065934016) scale(2.81 2.81)" >
	<polygon points="72.25,69.11 28.71,89 28.71,28.69 72.25,8.8 " style="stroke: none; stroke-width: 1; stroke-dasharray: none; stroke-linecap: butt; stroke-linejoin: miter; stroke-miterlimit: 10; fill: rgb(192,58,43); fill-rule: nonzero; opacity: 1;" transform="  matrix(1 0 0 1 0 0) "/>
	<path d="M 28.713 88.999 c -4.272 -1.659 -8 -4.149 -10.968 -7.8 l 0 -60.305 l 10.968 7.8 V 88.999 z" style="stroke: none; stroke-width: 1; stroke-dasharray: none; stroke-linecap: butt; stroke-linejoin: miter; stroke-miterlimit: 10; fill: rgb(192,58,43); fill-rule: nonzero; opacity: 1;" transform=" matrix(1 0 0 1 0 0) " stroke-linecap="round" />
	<polygon points="57.35,46.22 42.42,53.04 42.42,32.36 57.35,25.54 " style="stroke: none; stroke-width: 1; stroke-dasharray: none; stroke-linecap: butt; stroke-linejoin: miter; stroke-miterlimit: 10; fill: rgb(228,197,76); fill-rule: nonzero; opacity: 1;" transform="  matrix(1 0 0 1 0 0) "/>
	<path d="M 42.423 54.036 c -0.189 0 -0.377 -0.054 -0.541 -0.158 c -0.286 -0.185 -0.459 -0.501 -0.459 -0.842 V 32.36 c 0 -0.392 0.229 -0.747 0.584 -0.91 l 14.928 -6.821 c 0.31 -0.142 0.669 -0.117 0.957 0.068 c 0.286 0.184 0.459 0.501 0.459 0.841 v 20.676 c 0 0.392 -0.229 0.747 -0.584 0.909 l -14.929 6.821 C 42.707 54.006 42.564 54.036 42.423 54.036 z M 43.423 33.003 v 18.477 l 12.928 -5.907 V 27.095 L 43.423 33.003 z M 57.351 46.215 h 0.01 H 57.351 z" style="stroke: none; stroke-width: 1; stroke-dasharray: none; stroke-linecap: butt; stroke-linejoin: miter; stroke-miterlimit: 10; fill: rgb(0,0,0); fill-rule: nonzero; opacity: 1;" transform=" matrix(1 0 0 1 0 0) " stroke-linecap="round" />
	<path d="M 42.424 61.993 c -0.379 0 -0.742 -0.217 -0.91 -0.584 c -0.229 -0.503 -0.008 -1.096 0.494 -1.325 l 14.928 -6.82 c 0.503 -0.231 1.095 -0.008 1.325 0.493 c 0.229 0.503 0.009 1.096 -0.493 1.325 l -14.929 6.82 C 42.704 61.964 42.563 61.993 42.424 61.993 z" style="stroke: none; stroke-width: 1; stroke-dasharray: none; stroke-linecap: butt; stroke-linejoin: miter; stroke-miterlimit: 10; fill: rgb(0,0,0); fill-rule: nonzero; opacity: 1;" transform=" matrix(1 0 0 1 0 0) " stroke-linecap="round" />
	<path d="M 42.424 69.951 c -0.379 0 -0.742 -0.217 -0.91 -0.584 c -0.229 -0.503 -0.008 -1.096 0.494 -1.325 l 14.928 -6.82 c 0.503 -0.23 1.095 -0.008 1.325 0.493 c 0.229 0.503 0.009 1.096 -0.493 1.325 l -14.929 6.82 C 42.704 69.922 42.563 69.951 42.424 69.951 z" style="stroke: none; stroke-width: 1; stroke-dasharray: none; stroke-linecap: butt; stroke-linejoin: miter; stroke-miterlimit: 10; fill: rgb(0,0,0); fill-rule: nonzero; opacity: 1;" transform=" matrix(1 0 0 1 0 0) " stroke-linecap="round" />
	<path d="M 28.714 89.999 c -0.189 0 -0.377 -0.054 -0.541 -0.159 c -0.286 -0.184 -0.459 -0.5 -0.459 -0.841 V 28.694 c 0 -0.392 0.229 -0.747 0.584 -0.91 l 43.54 -19.894 c 0.31 -0.142 0.669 -0.117 0.957 0.068 c 0.286 0.184 0.459 0.501 0.459 0.841 v 60.305 c 0 0.392 -0.229 0.747 -0.584 0.909 L 29.129 89.909 C 28.997 89.969 28.855 89.999 28.714 89.999 z M 29.714 29.337 v 58.106 l 41.541 -18.98 V 10.356 L 29.714 29.337 z M 72.255 69.105 h 0.01 H 72.255 z" style="stroke: none; stroke-width: 1; stroke-dasharray: none; stroke-linecap: butt; stroke-linejoin: miter; stroke-miterlimit: 10; fill: rgb(0,0,0); fill-rule: nonzero; opacity: 1;" transform=" matrix(1 0 0 1 0 0) " stroke-linecap="round" />
	<path d="M 28.714 89.999 c -0.097 0 -0.194 -0.014 -0.288 -0.042 c -5.386 -1.622 -9.269 -4.397 -11.542 -8.25 c -0.091 -0.153 -0.139 -0.329 -0.139 -0.508 V 20.895 c 0 -0.552 0.448 -1 1 -1 s 1 0.448 1 1 v 60.027 c 1.842 2.984 4.854 5.232 8.969 6.698 V 28.694 c 0 -0.552 0.448 -1 1 -1 c 0.552 0 1 0.448 1 1 v 60.305 c 0 0.316 -0.149 0.614 -0.403 0.803 C 29.135 89.932 28.926 89.999 28.714 89.999 z" style="stroke: none; stroke-width: 1; stroke-dasharray: none; stroke-linecap: butt; stroke-linejoin: miter; stroke-miterlimit: 10; fill: rgb(0,0,0); fill-rule: nonzero; opacity: 1;" transform=" matrix(1 0 0 1 0 0) " stroke-linecap="round" />
	<path d="M 17.745 20.895 L 61.287 1.001 c -0.865 4.478 2.798 7.075 10.968 7.8 L 28.713 28.694 l -6.598 -2.786 L 17.745 20.895 z" style="stroke: none; stroke-width: 1; stroke-dasharray: none; stroke-linecap: butt; stroke-linejoin: miter; stroke-miterlimit: 10; fill: rgb(205,191,135); fill-rule: nonzero; opacity: 1;" transform=" matrix(1 0 0 1 0 0) " stroke-linecap="round" />
	<path d="M 28.714 29.695 c -0.379 0 -0.742 -0.217 -0.91 -0.585 c -0.229 -0.502 -0.008 -1.096 0.494 -1.325 l 43.54 -19.894 c 0.502 -0.231 1.096 -0.009 1.325 0.494 c 0.229 0.502 0.009 1.096 -0.493 1.325 L 29.129 29.604 C 28.994 29.665 28.853 29.695 28.714 29.695 z" style="stroke: none; stroke-width: 1; stroke-dasharray: none; stroke-linecap: butt; stroke-linejoin: miter; stroke-miterlimit: 10; fill: rgb(0,0,0); fill-rule: nonzero; opacity: 1;" transform=" matrix(1 0 0 1 0 0) " stroke-linecap="round" />
	<path d="M 17.745 21.895 c -0.379 0 -0.742 -0.217 -0.91 -0.584 c -0.229 -0.502 -0.008 -1.096 0.494 -1.325 L 60.871 0.091 c 0.504 -0.231 1.096 -0.008 1.325 0.494 s 0.009 1.096 -0.493 1.325 L 18.161 21.805 C 18.026 21.866 17.885 21.895 17.745 21.895 z" style="stroke: none; stroke-width: 1; stroke-dasharray: none; stroke-linecap: butt; stroke-linejoin: miter; stroke-miterlimit: 10; fill: rgb(0,0,0); fill-rule: nonzero; opacity: 1;" transform=" matrix(1 0 0 1 0 0) " stroke-linecap="round" />
	<path d="M 28.714 29.695 c -0.096 0 -0.192 -0.014 -0.289 -0.043 c -5.386 -1.621 -9.269 -4.396 -11.542 -8.248 c -0.281 -0.476 -0.123 -1.089 0.353 -1.37 c 0.476 -0.281 1.088 -0.123 1.37 0.353 c 2.009 3.406 5.507 5.879 10.395 7.35 c 0.529 0.159 0.829 0.717 0.669 1.246 C 29.541 29.415 29.144 29.695 28.714 29.695 z" style="stroke: none; stroke-width: 1; stroke-dasharray: none; stroke-linecap: butt; stroke-linejoin: miter; stroke-miterlimit: 10; fill: rgb(0,0,0); fill-rule: nonzero; opacity: 1;" transform=" matrix(1 0 0 1 0 0) " stroke-linecap="round" />
	<path d="M 72.256 9.8 c -0.018 0 -0.034 0 -0.052 -0.001 c -7.699 -0.39 -11.597 -3.249 -11.915 -8.74 c -0.032 -0.551 0.389 -1.024 0.94 -1.057 c 0.547 -0.033 1.024 0.389 1.056 0.94 c 0.253 4.346 3.436 6.525 10.02 6.859 c 0.552 0.028 0.976 0.498 0.948 1.049 C 73.226 9.385 72.785 9.8 72.256 9.8 z" style="stroke: none; stroke-width: 1; stroke-dasharray: none; stroke-linecap: butt; stroke-linejoin: miter; stroke-miterlimit: 10; fill: rgb(0,0,0); fill-rule: nonzero; opacity: 1;" transform=" matrix(1 0 0 1 0 0) " stroke-linecap="round" />
</g>
</svg>